<?xml version="1.0" encoding="UTF-8"?>
<!DOCTYPE svg PUBLIC "-//W3C//DTD SVG 1.1//EN" "http://www.w3.org/Graphics/SVG/1.1/DTD/svg11.dtd">
<!-- Creator: CorelDRAW -->
<svg xmlns="http://www.w3.org/2000/svg" xml:space="preserve" width="1.70666in" height="1.70666in" version="1.1" style="shape-rendering:geometricPrecision; text-rendering:geometricPrecision; image-rendering:optimizeQuality; fill-rule:evenodd; clip-rule:evenodd"
viewBox="0 0 1706.66 1706.66"
 xmlns:xlink="http://www.w3.org/1999/xlink"
 xmlns:xodm="http://www.corel.com/coreldraw/odm/2003">
 <defs>
  <style type="text/css">
   <![CDATA[
    .fil0 {fill:url(#id0)}
    .fil1 {fill:url(#id1)}
   ]]>
  </style>
  <linearGradient id="id0" gradientUnits="objectBoundingBox" x1="0.00136429%" y1="50%" x2="100.001%" y2="50%">
   <stop offset="0" style="stop-opacity:1; stop-color:#CC3300"/>
   <stop offset="1" style="stop-opacity:1; stop-color:#FF6600"/>
  </linearGradient>
  <linearGradient id="id1" gradientUnits="userSpaceOnUse" x1="123.01" y1="631.34" x2="1280.2" y2="631.34">
   <stop offset="0" style="stop-opacity:1; stop-color:#6600CC"/>
   <stop offset="1" style="stop-opacity:1; stop-color:#9900FF"/>
  </linearGradient>
 </defs>
 <g id="Layer_x0020_1">
  <metadata id="CorelCorpID_0Corel-Layer"/>
  <path class="fil0" d="M1484.95 1488.05l-1263.25 0c-122.03,0 -221.3,-99.29 -221.3,-221.31 0,-31.19 -6.87,-67.7 19.99,-67.7l629.85 0c-10.99,0.05 -19.89,8.99 -19.89,19.99l0 139.63c0,11.02 8.96,19.99 19.99,19.99l405.95 0c11.04,0 20,-8.95 19.99,-19.98l0 -139.63c0,-11.02 -8.96,-19.99 -19.99,-19.99l-202.98 -0 832.96 0c26.85,0 19.99,36.54 19.99,67.71 -0.02,122.02 -99.29,221.31 -221.31,221.31zm-217.41 -134.22c-37.79,0 -78.72,7.84 -78.72,-19.99 0,-27.83 40.95,-19.99 78.72,-19.99 26.31,0 26.32,39.98 0,39.98zm134.49 0c-37.79,0 -78.72,7.84 -78.72,-19.99 0,-27.83 40.95,-19.99 78.72,-19.99 26.31,0 26.32,39.98 0,39.98zm134.51 0c-37.8,0 -78.73,7.84 -78.73,-19.99 0,-27.83 40.96,-19.99 78.73,-19.99 26.31,0 26.31,39.98 0,39.98zm-866.2 -15.19l365.95 0 0 -99.63 -365.95 0 0 99.63z"/>
  <path class="fil0" d="M1343.77 589.24l-367.84 0c-48.28,0 -48.26,-73.31 0,-73.31l367.84 0c48.28,0 48.28,73.31 0,73.31zm0 135.5l-367.84 0c-48.28,0 -48.26,-73.31 0,-73.31l367.84 0c48.28,0 48.28,73.31 0,73.31zm0 135.51l-369.16 0c-48.28,0 -48.26,-73.31 0,-73.31l369.16 0c48.28,0 48.28,73.31 0,73.31zm0 147.54l-980.89 0c-48.27,0 -48.27,-73.31 0,-73.31l980.89 0c48.27,0 48.27,73.31 0,73.31z"/>
  <path class="fil0" d="M668.48 699.22c-46.3,0 -70.93,5.54 -107.88,-31.43 -44.33,-44.35 -43.26,-107.63 -12.86,-151.35l164.76 164.76c-8.79,6.01 -32.23,18.02 -44.02,18.02zm-92.71 -211.28c18.62,-13.32 41.75,-21.44 68.21,-21.44 106.07,0 144.5,116.89 96.82,186.48l-165.03 -165.04z"/>
  <path class="fil0" d="M745.93 844.1l-81.96 0 0 -161.96c0,-30.2 -39.98,-30.2 -39.98,0l0 161.96 -81.96 0c-50.96,0 -92.43,-41.46 -92.43,-92.43 0,-50.96 41.47,-92.43 92.43,-92.43l203.91 0c50.96,0 92.43,41.47 92.43,92.43 -0.02,50.97 -41.47,92.43 -92.43,92.43z"/>
  <path class="fil1" d="M263.24 338.87c-11.03,0 -19.99,8.96 -19.99,19.99l0 756.57c0,11.02 8.96,19.99 19.99,19.99l1180.17 0c11.04,0 19.99,-8.95 20.01,-19.99l0 -756.57c0,-11.03 -8.96,-19.99 -19.99,-19.99l-1180.19 0zm1254.18 -120.26c36.54,0 66.26,29.71 66.26,66.25l0 934.16c0,20.24 -16.44,36.66 -36.67,36.66l-1387.36 0c-20.23,0 -36.66,-16.43 -36.66,-36.66l0 -934.16c0,-36.54 29.71,-66.25 66.26,-66.25l1328.17 0z"/>
 </g>
</svg>
