<?xml version="1.0" encoding="UTF-8"?>
<!DOCTYPE svg PUBLIC "-//W3C//DTD SVG 1.1//EN" "http://www.w3.org/Graphics/SVG/1.1/DTD/svg11.dtd">
<!-- Creator: CorelDRAW -->
<svg xmlns="http://www.w3.org/2000/svg" xml:space="preserve" width="1.70666in" height="1.70666in" version="1.1" style="shape-rendering:geometricPrecision; text-rendering:geometricPrecision; image-rendering:optimizeQuality; fill-rule:evenodd; clip-rule:evenodd"
viewBox="0 0 1706.66 1706.66"
 xmlns:xlink="http://www.w3.org/1999/xlink"
 xmlns:xodm="http://www.corel.com/coreldraw/odm/2003">
 <defs>
  <style type="text/css">
   <![CDATA[
    .fil1 {fill:url(#id0)}
    .fil2 {fill:url(#id1)}
    .fil3 {fill:url(#id2)}
    .fil0 {fill:url(#id3)}
   ]]>
  </style>
  <linearGradient id="id0" gradientUnits="userSpaceOnUse" x1="1083.33" y1="1354.93" x2="1697.28" y2="1354.93">
   <stop offset="0" style="stop-opacity:1; stop-color:#6600CC"/>
   <stop offset="1" style="stop-opacity:1; stop-color:#9900FF"/>
  </linearGradient>
  <linearGradient id="id1" gradientUnits="userSpaceOnUse" xlink:href="#id0" x1="625.65" y1="1354.93" x2="11.7" y2="1354.93">
  </linearGradient>
  <linearGradient id="id2" gradientUnits="userSpaceOnUse" x1="0" y1="853.33" x2="1706.68" y2="853.33">
   <stop offset="0" style="stop-opacity:1; stop-color:#CC3300"/>
   <stop offset="1" style="stop-opacity:1; stop-color:#FF6600"/>
  </linearGradient>
  <linearGradient id="id3" gradientUnits="userSpaceOnUse" xlink:href="#id0" x1="509.45" y1="830.7" x2="1197.22" y2="830.7">
  </linearGradient>
 </defs>
 <g id="Layer_x0020_1">
  <metadata id="CorelCorpID_0Corel-Layer"/>
  <path class="fil0" d="M597.95 830.57l146.13 146.13c34.57,34.57 -18.18,85.53 -51.84,51.85l-172.07 -172.07c-14.31,-14.31 -14.31,-37.53 0,-51.84l172.07 -172.09c34.01,-34.01 85.85,17.83 51.84,51.84l-146.14 146.17zm510.73 -0l-146.15 -146.14c-34.02,-34.02 17.85,-85.86 51.86,-51.84l172.08 172.08c14.32,14.31 14.32,37.52 0,51.84l-172.08 172.07c-33.64,33.64 -86.46,-17.29 -51.87,-51.87l146.16 -146.13zm-328.9 307.27c-24.06,0 -41.71,-23.07 -35.4,-46.3l147.1 -541.18c12.66,-46.57 83.44,-27.39 70.78,19.22l-147.1 541.2c-4.34,15.96 -18.84,27.06 -35.37,27.06z"/>
  <path class="fil1" d="M1294.57 1688.35c-26.71,0 -26.58,19.39 2.29,-85.69 -17.37,-13.5 -32.91,-29.07 -46.41,-46.51l-99.49 26.65c-10.69,2.94 -21.65,-3.46 -24.5,-14.13l-42.44 -158.31c-2.86,-10.68 3.47,-21.63 14.13,-24.5l99.49 -26.68c2.99,-21.68 8.8,-43.3 17.06,-63.55l-72.84 -72.81c-7.81,-7.82 -7.81,-20.48 0,-28.3l115.9 -115.91c7.82,-7.82 20.49,-7.82 28.29,0l72.83 72.84c20.47,-8.37 41.74,-14.1 63.56,-17.07l26.64 -99.45c2.84,-10.65 13.9,-17.03 24.48,-14.13l158.33 42.41c10.66,2.86 17.01,13.83 14.15,24.5l-26.65 99.46c17.39,13.48 32.96,29.08 46.51,46.56 11.72,-3.14 23.09,-12 28.92,10 12.02,45.31 -23.85,351.76 -30.74,388 -56.57,29.96 -364.67,56.63 -369.53,56.63zm163.7 -132.85c-0.02,0 -0.02,0 0,0 -105.16,0 -182.54,-99.74 -155.11,-202.08 22.99,-85.76 111.16,-136.36 196.55,-113.48 85.46,22.89 136.37,111.07 113.49,196.54 -18.78,70.07 -82.49,119.02 -154.93,119.02z"/>
  <path class="fil2" d="M414.42 1688.35c26.71,0 26.58,19.39 -2.29,-85.69 17.37,-13.5 32.91,-29.07 46.41,-46.51l99.49 26.65c10.69,2.94 21.65,-3.46 24.5,-14.13l42.44 -158.31c2.86,-10.68 -3.47,-21.63 -14.13,-24.5l-99.49 -26.68c-2.99,-21.68 -8.8,-43.3 -17.06,-63.55l72.84 -72.81c7.81,-7.82 7.81,-20.48 0,-28.3l-115.9 -115.91c-7.82,-7.82 -20.49,-7.82 -28.29,0l-72.83 72.84c-20.47,-8.37 -41.74,-14.1 -63.56,-17.07l-26.64 -99.45c-2.84,-10.65 -13.9,-17.03 -24.48,-14.13l-158.33 42.41c-10.66,2.86 -17.01,13.83 -14.15,24.5l26.65 99.46c-17.39,13.48 -32.96,29.08 -46.51,46.56 -11.72,-3.14 -23.09,-12 -28.92,10 -12.02,45.31 23.85,351.76 30.74,388 56.57,29.96 364.67,56.63 369.53,56.63zm-163.7 -132.85c0.02,0 0.02,0 0,0 105.16,0 182.54,-99.74 155.11,-202.08 -22.99,-85.76 -111.16,-136.36 -196.55,-113.48 -85.46,22.89 -136.37,111.07 -113.49,196.54 18.78,70.07 82.49,119.02 154.93,119.02z"/>
  <path class="fil3" d="M1585.06 1706.67l-1463.47 0c-67.06,0 -121.6,-54.56 -121.6,-121.61l0 -1463.46c0,-67.06 54.54,-121.6 121.6,-121.6l687.92 0 0 224.42c0,64.12 27.04,121.39 69.15,158.59l-806.74 0 0 1202.06c0,27.38 22.29,49.67 49.67,49.67l1463.47 -0c27.38,0 49.67,-22.29 49.67,-49.67l0 -1202.06 -95.96 0c-72.37,-8.39 -128.98,-76.32 -128.98,-158.59l0 -224.43 175.27 0c67.06,0 121.61,54.54 121.61,121.6l0 1463.47c0,67.06 -54.55,121.59 -121.61,121.59zm-736.31 -1706.67l241.28 0 0 224.42c0,64.12 27.06,121.39 69.17,158.59l-181.46 0c-72.39,-8.39 -128.99,-76.32 -128.99,-158.59l0 -224.43zm280.52 0l241.29 0 0 224.42c0,64.12 27.03,121.39 69.13,158.59l-181.44 0c-72.38,-8.39 -128.98,-76.32 -128.98,-158.59l0 -224.43zm-471.31 219.31l-450.83 0c-25.83,0 -25.83,-39.23 0,-39.23l450.83 0c25.82,0 25.84,39.23 0,39.23zm387.86 -46.55c-6.46,0 -17.34,-8.5 -29.13,-19.67 -11.79,11.17 -22.67,19.67 -29.13,19.67 -17.29,0 -26.31,-21.07 -13.88,-33.49l14.92 -14.92c-5.61,-5.97 -10.74,-11.42 -14.91,-15.58 -18.28,-18.26 9.5,-46.01 27.75,-27.74l15.24 15.23 15.23 -15.23c18.28,-18.27 46.03,9.48 27.75,27.74 -4.17,4.17 -9.3,9.61 -14.91,15.58l14.92 14.92c12.43,12.41 3.41,33.49 -13.87,33.49zm283.52 0c-6.46,0 -17.33,-8.5 -29.12,-19.66 -11.79,11.16 -22.67,19.66 -29.11,19.66 -17.29,0 -26.31,-21.07 -13.88,-33.49l14.92 -14.91c-5.62,-5.97 -10.74,-11.42 -14.92,-15.59 -18.28,-18.26 9.5,-46.01 27.75,-27.74l15.24 15.24 15.24 -15.24c18.27,-18.27 46.02,9.48 27.75,27.74 -4.17,4.17 -9.3,9.62 -14.91,15.59l14.91 14.91c12.41,12.4 3.43,33.49 -13.87,33.49zm274.33 0c-6.46,0 -17.33,-8.5 -29.13,-19.66 -11.79,11.16 -22.66,19.66 -29.11,19.66 -17.28,0 -26.3,-21.07 -13.88,-33.49l14.91 -14.91c-5.61,-5.97 -10.74,-11.42 -14.91,-15.59 -18.28,-18.26 9.5,-46.01 27.75,-27.74l15.24 15.24 15.24 -15.24c18.28,-18.27 46.03,9.48 27.75,27.74 -4.17,4.16 -9.3,9.62 -14.91,15.59l14.91 14.91c12.43,12.41 3.41,33.49 -13.87,33.49z"/>
 </g>
</svg>
